# xmcd
#
# Track frame offsets:
#	150
#	17770
#	28205
#	44362
#	61785
#	72442
#	84870
#	102160
#	118315
#	137982
#	151310
#	162752
#	178282
#
# Disc length: 2716 seconds
#
# Revision: 0
# Processed by: cddbd v1.4b42PL0 Copyright (c) Steve Scherf et al.
# Submitted via: EasyCDDAExtractor 4.5.0.1
#
DISCID=af0a9a0d
DTITLE=Willie Nelson - He's On The Road Again [CD1]
DYEAR=1900
DGENRE=
TTITLE0=All Of Me
TTITLE1=Always
TTITLE2=Always On My Mind
TTITLE3=Let The Rest Of The World Go By
TTITLE4=Blue Eyes Crying In The Rain
TTITLE5=Crazy Arms [with Ray Price]
TTITLE6=Faded Love [ with Ray Price]
TTITLE7=Blue Skies
TTITLE8=Georgia On Ny Mind
TTITLE9=Good Hearted Woman
TTITLE10=Love Me Tender
TTITLE11=Moonlight In Vermont
TTITLE12=Amazing Grace
EXTD=
EXTT0=
EXTT1=
EXTT2=
EXTT3=
EXTT4=
EXTT5=
EXTT6=
EXTT7=
EXTT8=
EXTT9=
EXTT10=
EXTT11=
EXTT12=
PLAYORDER=
